<?xml version="1.0" encoding="utf-8"?>
<!-- Generator: Adobe Illustrator 16.0.0, SVG Export Plug-In . SVG Version: 6.00 Build 0)  -->
<!DOCTYPE svg PUBLIC "-//W3C//DTD SVG 1.1//EN" "http://www.w3.org/Graphics/SVG/1.1/DTD/svg11.dtd">
<svg version="1.1" xmlns="http://www.w3.org/2000/svg" xmlns:xlink="http://www.w3.org/1999/xlink" x="0px" y="0px" width="500px"
	 height="500px" viewBox="0 0 500 500" enable-background="new 0 0 500 500" xml:space="preserve">
<g id="Calque_1">
</g>
<g id="Calque_2">
	<rect x="105.125" y="44.734" fill="#435466" width="5.864" height="68.896"/>
	<rect x="388.526" y="46.201" fill="#435466" width="5.863" height="68.896"/>
	<g>
		<path fill="#4DBA87" d="M162.54,162.328c0,15.068-4.192,27.283-9.359,27.283H92.742c-5.17,0-9.359-12.215-9.359-27.283v-28.988
			c0-15.068,4.189-27.283,9.359-27.283h60.438c5.167,0,9.359,12.215,9.359,27.283V162.328z"/>
		<path fill="#4DBA87" d="M153.18,192.542H92.742c-8.444,0-12.291-15.662-12.291-30.215v-28.988
			c0-14.553,3.847-30.215,12.291-30.215h60.438c8.444,0,12.291,15.662,12.291,30.215v28.988
			C165.471,176.88,161.625,192.542,153.18,192.542z M92.742,108.988c-1.865,0-6.427,8.533-6.427,24.351v28.988
			c0,15.818,4.562,24.352,6.427,24.352h60.438c1.865,0,6.427-8.533,6.427-24.352v-28.988c0-15.818-4.562-24.351-6.427-24.351H92.742
			z"/>
	</g>
	<g>
		<path fill="#4DBA87" d="M416.867,160.129c0,15.068-4.191,27.283-9.359,27.283H347.07c-5.171,0-9.359-12.215-9.359-27.283v-28.988
			c0-15.068,4.188-27.283,9.359-27.283h60.438c5.168,0,9.359,12.215,9.359,27.283V160.129z"/>
		<path fill="#4DBA87" d="M407.508,190.344H347.07c-8.446,0-12.291-15.662-12.291-30.215v-28.988
			c0-14.553,3.845-30.215,12.291-30.215h60.438c8.446,0,12.291,15.662,12.291,30.215v28.988
			C419.799,174.682,415.954,190.344,407.508,190.344z M347.07,106.789c-1.867,0-6.428,8.533-6.428,24.352v28.988
			c0,15.818,4.561,24.352,6.428,24.352h60.438c1.867,0,6.428-8.533,6.428-24.352v-28.988c0-15.818-4.561-24.352-6.428-24.352H347.07
			z"/>
	</g>
	<g>
		<path fill="#4DBA87" d="M377.289,175.641c0,31.193-13.542,56.48-30.242,56.48h-195.31c-16.703,0-30.242-25.288-30.242-56.48
			v-60.012c0-31.193,13.539-56.48,30.242-56.48h195.31c16.7,0,30.242,25.288,30.242,56.48V175.641z"/>
		<path fill="#4DBA87" d="M347.047,235.053h-195.31c-18.603,0-33.174-26.097-33.174-59.412v-60.012
			c0-33.315,14.571-59.412,33.174-59.412h195.31c18.602,0,33.174,26.097,33.174,59.412v60.012
			C380.221,208.956,365.648,235.053,347.047,235.053z M151.737,62.08c-14.803,0-27.311,24.522-27.311,53.549v60.012
			c0,29.027,12.507,53.549,27.311,53.549h195.31c14.805,0,27.311-24.522,27.311-53.549v-60.012
			c0-29.027-12.506-53.549-27.311-53.549H151.737z"/>
	</g>
	<g>
		<circle fill="#4DBA87" cx="106.836" cy="30.564" r="16.125"/>
		<path fill="#4DBA87" d="M106.836,49.62c-10.507,0-19.056-8.549-19.056-19.056s8.549-19.056,19.056-19.056
			s19.056,8.549,19.056,19.056S117.344,49.62,106.836,49.62z M106.836,17.371c-7.275,0-13.193,5.918-13.193,13.193
			s5.918,13.193,13.193,13.193s13.193-5.918,13.193-13.193S114.111,17.371,106.836,17.371z"/>
	</g>
	<g>
		<circle fill="#4DBA87" cx="390.482" cy="30.564" r="16.125"/>
		<path fill="#4DBA87" d="M390.481,49.62c-10.507,0-19.056-8.549-19.056-19.056s8.549-19.056,19.056-19.056
			c10.508,0,19.057,8.549,19.057,19.056S400.989,49.62,390.481,49.62z M390.481,17.371c-7.274,0-13.192,5.918-13.192,13.193
			s5.918,13.193,13.192,13.193c7.275,0,13.193-5.918,13.193-13.193S397.757,17.371,390.481,17.371z"/>
	</g>
</g>
<g id="Calque_4">
	<g>
		<circle fill="#435466" cx="190.391" cy="134.641" r="12.46"/>
		<path fill="#435466" d="M190.391,150.032c-8.487,0-15.392-6.904-15.392-15.392s6.904-15.392,15.392-15.392
			c8.488,0,15.392,6.904,15.392,15.392S198.878,150.032,190.391,150.032z M190.391,125.113c-5.253,0-9.528,4.274-9.528,9.528
			c0,5.254,4.274,9.528,9.528,9.528c5.254,0,9.528-4.274,9.528-9.528C199.919,129.387,195.645,125.113,190.391,125.113z"/>
	</g>
	<g>
		<circle fill="#435466" cx="309.126" cy="134.641" r="12.46"/>
		<path fill="#435466" d="M309.126,150.032c-8.485,0-15.392-6.904-15.392-15.392s6.906-15.392,15.392-15.392
			c8.486,0,15.392,6.904,15.392,15.392S317.612,150.032,309.126,150.032z M309.126,125.113c-5.253,0-9.528,4.274-9.528,9.528
			c0,5.254,4.275,9.528,9.528,9.528c5.254,0,9.528-4.274,9.528-9.528C318.654,129.387,314.38,125.113,309.126,125.113z"/>
	</g>
	<path fill="#435466" d="M249.759,194.741c-21.31,0-37.38-8.035-37.38-18.689c0-1.619,1.312-2.932,2.932-2.932
		s2.932,1.313,2.932,2.932c0,6.066,12.944,12.826,31.517,12.826c18.572,0,31.516-6.76,31.516-12.826
		c0-1.619,1.312-2.932,2.932-2.932c1.621,0,2.933,1.313,2.933,2.932C287.139,186.706,271.068,194.741,249.759,194.741z"/>
</g>
<g id="Calque_3">
	<g id="g10" transform="matrix(1.3333333,0,0,-1.3333333,0,400)">
		<g id="g12" transform="translate(178.0626,235.0086)">
			<path id="path14" fill="#4DBA87" d="M32.236-127.474L8.943-167.816l-23.291,40.343h-77.569L8.943-302.171l100.861,174.697H32.236
				z"/>
		</g>
		<g id="g16" transform="translate(178.0626,235.0086)">
			<path id="path18" fill="#435466" d="M32.236-127.474L8.943-167.816l-23.291,40.343h-37.225L8.943-232.293l60.519,104.819H32.236z
				"/>
		</g>
	</g>
</g>
</svg>
